<?xml version="1.0" standalone="no"?>
<!DOCTYPE svg PUBLIC "-//W3C//DTD SVG 20010904//EN"
 "http://www.w3.org/TR/2001/REC-SVG-20010904/DTD/svg10.dtd">
<svg version="1.0" xmlns="http://www.w3.org/2000/svg"
 width="376.000000pt" height="350.000000pt" viewBox="0 0 376.000000 350.000000"
 preserveAspectRatio="xMidYMid meet">

<g transform="translate(0.000000,350.000000) scale(0.100000,-0.100000)"
fill="#000000" stroke="none">
<path d="M2120 2722 c-15 -16 -36 -54 -46 -86 -10 -32 -24 -60 -30 -63 -6 -2
-112 13 -235 33 -171 28 -255 37 -354 38 -123 1 -133 -1 -188 -27 -73 -36
-107 -83 -107 -147 0 -25 3 -55 6 -67 6 -21 7 -20 36 13 37 41 154 100 227
114 29 6 99 10 154 10 100 0 439 -20 446 -26 2 -1 -20 -81 -48 -176 -27 -95
-62 -217 -76 -272 -37 -143 -129 -278 -151 -221 -8 19 25 150 72 298 20 59 34
118 32 130 -3 19 -84 85 -92 76 -2 -2 -20 -58 -41 -124 -63 -203 -206 -457
-234 -415 -14 20 -4 76 31 190 51 162 117 270 173 284 22 6 24 9 15 26 -14 25
-61 50 -96 50 -68 0 -170 -159 -218 -338 -26 -98 -42 -125 -103 -174 -89 -71
-185 -99 -198 -58 -9 27 15 140 29 140 46 0 120 35 170 81 99 91 111 177 34
256 -72 74 -123 77 -185 11 -60 -63 -153 -270 -153 -340 0 -49 -135 -238 -170
-238 -32 0 -16 77 72 360 133 428 131 420 120 443 -9 21 -97 76 -105 67 -2 -3
-32 -99 -66 -215 -34 -115 -67 -225 -73 -242 l-10 -33 -94 0 c-58 0 -94 4 -94
10 0 6 20 89 45 185 25 96 42 181 39 190 -4 9 -29 32 -57 50 l-51 34 -95 -51
c-215 -116 -361 -221 -411 -296 -52 -78 -35 -177 38 -223 l32 -21 0 29 c0 84
49 172 157 278 62 61 240 191 250 182 2 -3 -13 -67 -32 -143 -65 -250 -60
-238 -98 -252 -43 -15 -65 -40 -73 -80 l-7 -32 36 15 c46 19 47 19 47 -3 0
-22 -51 -179 -78 -242 -21 -50 -82 -110 -110 -110 -50 0 -54 50 -12 150 33 77
33 95 -4 129 l-24 23 -27 -42 c-76 -121 -73 -251 6 -279 54 -19 120 -13 177
15 88 44 134 117 192 302 18 58 37 103 46 106 9 3 54 9 101 13 81 6 85 5 79
-13 -20 -65 -46 -195 -46 -230 0 -26 7 -51 20 -67 24 -30 81 -51 115 -43 30 8
85 63 127 128 l31 50 11 -33 c37 -110 200 -92 332 38 51 50 54 52 54 28 0 -34
25 -82 49 -95 11 -5 36 -10 55 -10 31 0 40 6 70 48 19 26 47 73 63 104 15 32
31 58 34 58 4 0 3 -19 -1 -41 -14 -78 14 -128 83 -144 36 -9 66 11 105 70 28
43 31 45 37 23 17 -56 88 -93 132 -69 11 5 37 35 59 66 l38 57 18 -41 c17 -41
59 -71 98 -71 23 0 102 69 128 112 19 33 32 36 32 9 0 -30 41 -70 79 -78 33
-6 34 -5 27 21 -11 46 30 191 89 310 89 183 133 240 156 205 12 -19 4 -60 -38
-209 -19 -69 -38 -154 -40 -191 -5 -58 -3 -68 18 -92 15 -17 38 -30 62 -34 43
-7 67 11 120 87 l31 45 9 -37 c11 -48 37 -69 90 -75 l44 -5 59 75 c32 42 60
75 61 73 1 -1 -9 -38 -22 -82 l-25 -79 -91 -60 c-50 -33 -113 -84 -140 -113
l-48 -53 -40 26 c-23 14 -43 25 -45 25 -7 0 -48 -138 -100 -334 -29 -109 -63
-206 -97 -279 -61 -133 -133 -247 -154 -247 -60 0 68 387 152 461 19 16 40 29
48 29 23 0 18 16 -16 44 -49 42 -93 36 -146 -19 -84 -88 -155 -270 -157 -400
-1 -96 15 -129 70 -144 63 -17 90 9 174 170 l60 114 -7 -55 c-5 -30 -8 -105
-8 -165 l1 -111 -223 -68 c-181 -56 -240 -69 -311 -74 -98 -5 -176 11 -249 54
-23 13 -45 24 -48 24 -4 0 -5 -27 -3 -60 5 -70 28 -101 98 -133 56 -26 157
-27 249 -3 36 10 121 42 190 73 277 122 321 138 339 125 86 -61 203 -86 288
-63 125 34 125 128 0 162 -35 10 -156 8 -207 -3 -19 -4 -23 76 -9 177 13 92
64 305 117 485 l36 125 66 0 c125 0 241 83 303 215 l33 71 120 69 c331 190
450 324 390 440 -15 29 -61 60 -88 60 -11 0 -15 -13 -15 -48 0 -63 -35 -133
-109 -212 -74 -81 -257 -229 -268 -218 -2 2 25 93 61 203 35 109 64 209 64
222 0 15 -14 32 -46 53 -25 18 -48 29 -51 26 -4 -3 -27 -75 -53 -160 -27 -92
-60 -176 -80 -211 -43 -71 -120 -167 -139 -173 -25 -8 -6 103 48 275 28 89 51
168 51 176 0 12 -99 83 -105 75 -7 -10 -85 -273 -96 -323 -12 -59 -76 -171
-120 -211 -17 -16 -22 -16 -30 -4 -12 19 -5 59 38 205 54 185 50 295 -14 324
-59 27 -89 7 -162 -109 -22 -36 -41 -61 -41 -56 0 6 23 81 50 167 63 199 64
209 4 244 -25 15 -47 25 -49 23 -5 -6 -136 -451 -166 -562 -30 -115 -61 -173
-135 -248 -42 -44 -64 -48 -64 -15 0 29 59 248 101 375 30 91 31 92 63 92 33
0 56 15 56 37 0 8 -13 13 -36 13 -33 0 -36 2 -30 23 4 12 10 41 13 64 5 41 5
42 -43 72 l-49 30 -29 -99 c-29 -97 -31 -100 -63 -106 -29 -5 -53 -28 -53 -48
0 -3 15 -6 33 -6 l33 0 -46 -163 c-38 -132 -55 -176 -92 -232 -25 -39 -55 -78
-66 -89 -20 -17 -22 -17 -28 -2 -9 23 52 256 124 480 56 176 57 179 91 190 96
32 102 183 9 215 -46 16 -57 14 -88 -17z m120 -92 c0 -21 -8 -35 -25 -46 -36
-23 -40 -13 -16 41 22 50 41 52 41 5z m-930 -397 c0 -29 -26 -116 -45 -153
-25 -48 -52 -81 -83 -102 -66 -43 -65 -15 0 125 50 106 128 185 128 130z
m1759 -453 c-23 -64 -133 -160 -184 -160 -27 0 -29 30 -4 57 24 26 178 133
191 133 4 0 2 -13 -3 -30z m-191 -1021 c62 -22 49 -71 -23 -85 -59 -11 -165
34 -165 71 0 23 134 33 188 14z"/>
<path d="M1701 1728 c-71 -90 -150 -117 -476 -163 -295 -42 -379 -59 -476 -96
-151 -58 -241 -134 -279 -237 -47 -126 -3 -243 105 -276 19 -5 20 -1 20 102 0
96 3 113 28 168 65 141 209 224 420 241 58 5 69 4 65 -8 -3 -8 -20 -71 -38
-141 l-33 -128 -37 0 c-25 0 -40 -5 -44 -16 -11 -28 -7 -34 24 -34 17 0 33 -6
36 -14 6 -15 -51 -238 -85 -339 -45 -130 -102 -197 -157 -183 -34 9 -35 58 -2
135 40 92 40 99 4 138 l-33 36 -36 -71 c-83 -167 -48 -272 93 -272 99 0 190
60 239 158 24 48 79 215 106 322 l21 85 74 12 c41 7 87 17 102 24 26 11 58 62
58 93 0 15 -4 14 -37 -2 -43 -21 -162 -56 -169 -49 -3 2 5 44 17 93 12 51 19
107 16 132 l-5 42 122 0 c158 0 248 14 316 48 66 33 91 65 97 126 5 42 -11
107 -26 105 -3 0 -17 -14 -30 -31z"/>
<path d="M2134 1348 c23 -32 21 -147 -4 -236 -39 -141 -111 -266 -169 -297
-28 -14 -31 -14 -40 4 -20 37 21 215 78 336 36 78 86 135 117 135 23 0 -1 37
-36 55 -40 21 -82 19 -113 -5 -38 -30 -92 -124 -121 -212 -73 -216 -44 -358
72 -358 64 0 122 31 186 101 115 124 175 326 130 439 -18 46 -38 60 -84 60
-30 0 -31 -1 -16 -22z"/>
<path d="M1675 1320 c-4 -6 -2 -16 3 -23 40 -51 4 -255 -74 -409 -31 -61 -95
-128 -122 -128 -20 0 -22 6 -22 48 0 152 124 432 191 432 27 0 23 15 -12 44
-41 35 -96 35 -137 1 -16 -14 -48 -61 -71 -105 -99 -189 -108 -402 -21 -448
34 -18 104 -8 156 23 88 52 186 196 213 315 15 67 13 166 -4 200 -25 48 -83
77 -100 50z"/>
</g>
</svg>
